<svg width="24" height="24" viewBox="0 0 24 24" fill="none" xmlns="http://www.w3.org/2000/svg">
<path d="M15.0006 22.7499H9.00063C7.68063 22.7499 6.58063 22.6199 5.65063 22.3399C5.31063 22.2399 5.09063 21.9099 5.11063 21.5599C5.36063 18.5699 8.39063 16.2198 12.0006 16.2198C15.6106 16.2198 18.6306 18.5599 18.8906 21.5599C18.9206 21.9199 18.7006 22.2399 18.3506 22.3399C17.4206 22.6199 16.3206 22.7499 15.0006 22.7499ZM6.72063 21.0599C7.38063 21.1899 8.13063 21.2499 9.00063 21.2499H15.0006C15.8706 21.2499 16.6206 21.1899 17.2806 21.0599C16.7506 19.1399 14.5606 17.7198 12.0006 17.7198C9.44063 17.7198 7.25063 19.1399 6.72063 21.0599Z" fill="white"/>
<path fill-rule="evenodd" clip-rule="evenodd" d="M3.09467 3.09479C4.42914 1.76032 6.42603 1.25012 9 1.25012H15C17.574 1.25012 19.5709 1.76032 20.9053 3.09479C22.2398 4.42926 22.75 6.42615 22.75 9.00012V15.0001C22.75 16.9508 22.4585 18.5642 21.7401 19.8129C21.0039 21.0924 19.8645 21.9114 18.3443 22.3418C18.1288 22.4028 17.8974 22.3643 17.7133 22.2369C17.5291 22.1095 17.4115 21.9065 17.3927 21.6834C17.2156 19.591 14.9934 17.7198 12.0006 17.7198C9.00778 17.7198 6.78438 19.591 6.60733 21.6834C6.58845 21.9065 6.47087 22.1095 6.28673 22.2369C6.10259 22.3643 5.87116 22.4028 5.65571 22.3418C4.13552 21.9114 2.99613 21.0924 2.25993 19.8129C1.54148 18.5642 1.25 16.9508 1.25 15.0001V9.00012C1.25 6.42615 1.7602 4.42926 3.09467 3.09479ZM4.15533 4.15545C3.2398 5.07098 2.75 6.57409 2.75 9.00012V15.0001C2.75 16.8295 3.02852 18.141 3.56007 19.0648C3.95322 19.7481 4.50844 20.2605 5.28506 20.6156C6.02949 18.0089 8.85887 16.2198 12.0006 16.2198C15.1423 16.2198 17.9705 18.0089 18.7149 20.6156C19.4916 20.2605 20.0468 19.7481 20.4399 19.0648C20.9715 18.141 21.25 16.8295 21.25 15.0001V9.00012C21.25 6.57409 20.7602 5.07098 19.8447 4.15545C18.9291 3.23992 17.426 2.75012 15 2.75012H9C6.57397 2.75012 5.07086 3.23992 4.15533 4.15545ZM12 7.75012C10.4342 7.75012 9.17 9.01435 9.17 10.5801C9.17 12.1486 10.4369 13.4201 12 13.4201C13.5631 13.4201 14.83 12.1486 14.83 10.5801C14.83 9.01435 13.5658 7.75012 12 7.75012ZM7.67 10.5801C7.67 8.18593 9.60578 6.25012 12 6.25012C14.3942 6.25012 16.33 8.18593 16.33 10.5801C16.33 12.9716 14.3969 14.9201 12 14.9201C9.60306 14.9201 7.67 12.9716 7.67 10.5801Z" fill="white"/>
<path d="M12 14.9201C9.61002 14.9201 7.67 12.9701 7.67 10.5801C7.67 8.19014 9.61002 6.25012 12 6.25012C14.39 6.25012 16.33 8.19014 16.33 10.5801C16.33 12.9701 14.39 14.9201 12 14.9201ZM12 7.75012C10.44 7.75012 9.17 9.02014 9.17 10.5801C9.17 12.1501 10.44 13.4201 12 13.4201C13.56 13.4201 14.83 12.1501 14.83 10.5801C14.83 9.02014 13.56 7.75012 12 7.75012Z" fill="white"/>
</svg>
