<svg width="25" height="29" viewBox="0 0 25 29" fill="none" xmlns="http://www.w3.org/2000/svg">
<path fill-rule="evenodd" clip-rule="evenodd" d="M17.8977 9.89482C18.1823 9.58562 18.5634 9.41453 18.959 9.4184C19.3546 9.42227 19.7331 9.60078 20.0128 9.9155C20.2926 10.2302 20.4513 10.656 20.4547 11.101C20.4581 11.5461 20.306 11.9749 20.0312 12.295L13.9959 19.0847C13.7129 19.4029 13.3292 19.5817 12.9292 19.5817C12.5291 19.5817 12.1454 19.4029 11.8624 19.0847L5.82711 12.295C5.55226 11.9749 5.40018 11.5461 5.40362 11.101C5.40706 10.656 5.56574 10.2302 5.84549 9.9155C6.12524 9.60078 6.50367 9.42227 6.89928 9.4184C7.29489 9.41453 7.67602 9.58562 7.96059 9.89482L12.9292 15.4845L17.8977 9.89482Z" fill="#5F41B2"/>
</svg>
