<svg width="26" height="25" viewBox="0 0 26 25" fill="none" xmlns="http://www.w3.org/2000/svg">
<path d="M24.8134 14.9688C23.7195 13.6913 23.2223 12.5843 23.2223 10.7035V10.064C23.2223 7.61308 22.6582 6.03394 21.4318 4.4548C19.5416 2.00238 16.3595 0.524292 13.2443 0.524292H13.1118C10.0621 0.524292 6.97972 1.93451 5.05674 4.28738C3.76334 5.8982 3.13376 7.54521 3.13376 10.064V10.7035C3.13376 12.5843 2.66938 13.6913 1.54269 14.9688C0.713661 15.91 0.44873 17.1196 0.44873 18.4288C0.44873 19.7394 0.878871 20.9807 1.74213 21.9897C2.86883 23.1994 4.4599 23.9716 6.0852 24.1058C8.43832 24.3743 10.7914 24.4753 13.1788 24.4753C15.5647 24.4753 17.9178 24.3064 20.2724 24.1058C21.8962 23.9716 23.4873 23.1994 24.614 21.9897C25.4757 20.9807 25.9074 19.7394 25.9074 18.4288C25.9074 17.1196 25.6424 15.91 24.8134 14.9688Z" fill="#0FF2B2"/>
</svg>
