<svg width="31" height="28" viewBox="0 0 31 28" fill="none" xmlns="http://www.w3.org/2000/svg">
<path opacity="0.4" d="M30.8588 19.9037C30.8588 24.0819 27.5043 27.4664 23.326 27.4814H23.3111H8.47018C4.30695 27.4814 0.907471 24.1119 0.907471 19.9337V19.9187C0.907471 19.9187 0.916456 13.2905 0.928437 9.95689C0.929934 9.33091 1.64877 8.98048 2.13847 9.36984C5.69669 12.1928 12.0599 17.3399 12.1392 17.4073C13.2025 18.2594 14.5503 18.7401 15.9281 18.7401C17.3058 18.7401 18.6536 18.2594 19.7169 17.3908C19.7963 17.3384 26.0172 12.3455 29.6293 9.47617C30.1205 9.0853 30.8423 9.43574 30.8438 10.0602C30.8588 13.3683 30.8588 19.9037 30.8588 19.9037Z" fill="#0FF2B2"/>
<path d="M30.0744 4.52879C28.7775 2.08476 26.2257 0.524292 23.4162 0.524292H8.4705C5.66107 0.524292 3.10921 2.08476 1.81232 4.52879C1.52179 5.0754 1.65957 5.75679 2.14328 6.14316L13.2627 15.0372C14.0415 15.6662 14.9849 15.9792 15.9284 15.9792C15.9344 15.9792 15.9389 15.9792 15.9434 15.9792C15.9479 15.9792 15.9538 15.9792 15.9583 15.9792C16.9018 15.9792 17.8453 15.6662 18.624 15.0372L29.7434 6.14316C30.2272 5.75679 30.3649 5.0754 30.0744 4.52879Z" fill="#0FF2B2"/>
</svg>
