<svg width="101" height="102" viewBox="0 0 101 102" fill="none" xmlns="http://www.w3.org/2000/svg">
<rect y="0.793091" width="100.414" height="100.414" rx="50.2069" fill="url(#paint0_linear_507_10470)"/>
<g clip-path="url(#clip0_507_10470)">
<path d="M63.4077 50.7342L67.9558 40.8791L72.5038 50.7332L75.175 49.5006L69.2914 36.7527C69.1735 36.4977 68.9852 36.2817 68.7485 36.1303C68.5118 35.979 68.2367 35.8986 67.9558 35.8986C67.6748 35.8986 67.3998 35.979 67.1631 36.1303C66.9264 36.2817 66.738 36.4977 66.6202 36.7527L60.7366 49.5006L63.4077 50.7342Z" fill="#D5D3EA"/>
<path d="M60.6011 50.1174C60.6011 49.3054 61.26 48.6465 62.072 48.6465H73.8392C74.6512 48.6465 75.3101 49.3054 75.3101 50.1174C75.3101 54.1732 72.0104 57.4719 67.9556 57.4719C63.9008 57.4719 60.6011 54.1732 60.6011 50.1174Z" fill="#FFB454"/>
<path d="M25.2388 49.5006L31.1224 36.7527C31.2402 36.4977 31.4286 36.2817 31.6653 36.1303C31.902 35.979 32.177 35.8986 32.458 35.8986C32.7389 35.8986 33.014 35.979 33.2507 36.1303C33.4874 36.2817 33.6757 36.4977 33.7936 36.7527L39.6772 49.5006L37.006 50.7332L32.458 40.8791L27.9099 50.7332L25.2388 49.5006Z" fill="#E2DFF4"/>
<path d="M66.6388 38.8405C64.001 38.8405 61.3602 38.2168 59.0009 37.0371L58.8371 36.9548C57.0142 36.0428 55.0581 35.4262 53.0417 35.1279H47.3709C45.3547 35.4268 43.3986 36.0434 41.5755 36.9548L41.4118 37.0371C39.0524 38.2168 36.4117 38.8405 33.7739 38.8405C30.6977 38.8405 27.8069 37.6432 25.6319 35.4682C25.0573 34.8935 25.0573 33.962 25.6319 33.3883C26.2065 32.8137 27.1381 32.8137 27.7118 33.3883C29.3307 35.0073 31.4841 35.8996 33.7739 35.8996C35.9567 35.8996 38.1434 35.3838 40.0958 34.4072L40.2596 34.3248C42.3957 33.256 44.6905 32.5391 47.0551 32.2018C47.1238 32.192 47.1934 32.1871 47.263 32.1871H53.1467C53.2163 32.1871 53.2859 32.192 53.3545 32.2018C55.7195 32.5393 58.0145 33.2561 60.1511 34.3248L60.3149 34.4072C62.2672 35.3838 64.454 35.8996 66.6368 35.8996C68.9265 35.8996 71.0799 35.0083 72.6989 33.3883C73.2735 32.8137 74.2051 32.8137 74.7788 33.3883C75.3534 33.9629 75.3534 34.8945 74.7788 35.4682C72.6067 37.6432 69.7149 38.8405 66.6388 38.8405Z" fill="#4895FF"/>
<path d="M74.7817 33.3873C74.2071 32.8127 73.2765 32.8127 72.7018 33.3873C71.0828 35.0063 68.9294 35.8987 66.6397 35.8987C64.4569 35.8987 62.2702 35.3829 60.3178 34.4062L60.154 34.3238C58.0153 33.254 55.7286 32.5401 53.3575 32.2008C53.2888 32.191 53.2192 32.1861 53.1496 32.1861H50.2078V35.1279H53.0427C55.0637 35.428 57.0131 36.0428 58.8381 36.9548L59.0018 37.0371C61.3611 38.2168 64.0019 38.8405 66.6397 38.8405C69.7159 38.8405 72.6067 37.6432 74.7817 35.4682C75.3553 34.8935 75.3553 33.962 74.7817 33.3873Z" fill="#005EDF"/>
<path d="M50.2067 25.8965C51.8316 25.8965 53.1485 27.2134 53.1485 28.8383V62.8652C53.1485 63.6772 52.7092 64.3361 52.1679 64.3361H48.2455C47.7042 64.3361 47.2649 63.6772 47.2649 62.8652V28.8383C47.2649 27.2134 48.5818 25.8965 50.2067 25.8965Z" fill="#FFE278"/>
<path d="M50.2068 25.8965V64.3361H52.168C52.7093 64.3361 53.1486 63.6772 53.1486 62.8652V28.8383C53.1486 27.2134 51.8316 25.8965 50.2068 25.8965Z" fill="#FFB454"/>
<path d="M60.0129 70.2198H40.4008C39.5889 70.2198 38.9299 69.5608 38.9299 68.7489V66.7877C38.9299 63.8135 41.3491 61.3943 44.3233 61.3943H56.0905C59.0647 61.3943 61.4838 63.8135 61.4838 66.7877V68.7489C61.4838 69.5608 60.8248 70.2198 60.0129 70.2198Z" fill="#005EDF"/>
<path d="M56.0904 61.3943H50.2068V70.2198H60.0128C60.8248 70.2198 61.4837 69.5608 61.4837 68.7489V66.7877C61.4837 63.8135 59.0646 61.3943 56.0904 61.3943Z" fill="#00429B"/>
<path d="M67.3673 75.3189H33.0461V72.6713C33.0461 69.6922 35.4604 67.278 38.4395 67.278H61.9739C64.953 67.278 67.3673 69.6922 67.3673 72.6713V75.3189Z" fill="#4895FF"/>
<path d="M67.3673 72.6713C67.3673 69.6922 64.9531 67.278 61.974 67.278H50.2068V75.3189H67.3673V72.6713Z" fill="#005EDF"/>
<path d="M32.4578 57.4719C28.403 57.4719 25.1033 54.1732 25.1033 50.1174C25.1033 49.3054 25.7622 48.6465 26.5742 48.6465H38.3414C39.1534 48.6465 39.8123 49.3054 39.8123 50.1174C39.8123 54.1732 36.5136 57.4719 32.4578 57.4719ZM73.8393 76.1034H26.5742C25.7622 76.1034 25.1033 75.4444 25.1033 74.6325C25.1033 73.8205 25.7622 73.1616 26.5742 73.1616H73.8393C74.6512 73.1616 75.3102 73.8205 75.3102 74.6325C75.3102 75.4444 74.6512 76.1034 73.8393 76.1034Z" fill="#FFE278"/>
<path d="M73.8393 73.1616H50.2068V76.1034H73.8393C74.6513 76.1034 75.3102 75.4444 75.3102 74.6325C75.3102 73.8205 74.6513 73.1616 73.8393 73.1616Z" fill="#FFB454"/>
</g>
<defs>
<linearGradient id="paint0_linear_507_10470" x1="89.1172" y1="0.793093" x2="50.2069" y2="101.207" gradientUnits="userSpaceOnUse">
<stop stop-color="#FFD3D3"/>
<stop offset="1" stop-color="#FFEFEF"/>
</linearGradient>
<clipPath id="clip0_507_10470">
<rect width="50.2069" height="50.2069" fill="white" transform="translate(25.1033 25.8965)"/>
</clipPath>
</defs>
</svg>
