<svg width="101" height="102" viewBox="0 0 101 102" fill="none" xmlns="http://www.w3.org/2000/svg">
<rect x="0.333496" y="0.793091" width="100.414" height="100.414" rx="50.2069" fill="url(#paint0_linear_507_10520)"/>
<path d="M60.9651 63.7049C60.9651 63.5129 60.8888 63.3287 60.753 63.1929C60.6172 63.0571 60.433 62.9808 60.2409 62.9808H40.9185C40.7264 62.9808 40.5422 63.0571 40.4064 63.1929C40.2706 63.3287 40.1943 63.5129 40.1943 63.7049V81.3202C40.1943 81.9042 40.3499 82.4511 40.6381 82.9226C40.9246 83.391 41.3406 83.7792 41.8645 84.0473C42.3884 84.3154 42.9446 84.4279 43.49 84.3863C44.0369 84.3447 44.5716 84.1505 45.0492 83.807L50.5789 79.8257L56.1086 83.807C56.5863 84.1505 57.1209 84.3447 57.6679 84.3863C58.2133 84.4279 58.771 84.3154 59.2934 84.0473C59.8172 83.7792 60.2332 83.3925 60.5198 82.9226C60.8079 82.4511 60.9635 81.9042 60.9635 81.3202V63.7049H60.9651Z" fill="#4895FF"/>
<path d="M40.1958 70.1159V71.5627H48.3648C48.5569 71.5627 48.7411 71.4864 48.8769 71.3506C49.0127 71.2148 49.089 71.0306 49.089 70.8385C49.089 70.6465 49.0127 70.4623 48.8769 70.3265C48.7411 70.1907 48.5569 70.1144 48.3648 70.1144H40.1958V70.1159ZM60.965 77.2603V75.8136H52.796C52.6039 75.8136 52.4197 75.8899 52.2839 76.0257C52.1481 76.1615 52.0718 76.3457 52.0718 76.5377C52.0718 76.7298 52.1481 76.914 52.2839 77.0498C52.4197 77.1856 52.6039 77.2619 52.796 77.2619H60.965V77.2603Z" fill="#005EDF"/>
<path d="M50.5805 17.834C57.2981 17.834 63.381 20.5565 67.7829 24.9599C72.1848 29.3618 74.9088 35.4447 74.9088 42.1623C74.9088 48.8799 72.1863 54.9628 67.7829 59.3647C63.381 63.7665 57.2981 66.4906 50.5805 66.4906C43.8629 66.4906 37.78 63.7681 33.3781 59.3647C28.9762 54.9628 26.2522 48.8799 26.2522 42.1623C26.2522 35.4447 28.9747 29.3618 33.3781 24.9599C37.78 20.5565 43.8629 17.834 50.5805 17.834Z" fill="#FFD064"/>
<path d="M50.5806 23.1172C55.8391 23.1172 60.6016 25.2496 64.0482 28.6963C67.4948 32.1429 69.6272 36.9038 69.6272 42.1639C69.6272 47.4224 67.4948 52.1849 64.0482 55.6315C60.6016 59.0781 55.8407 61.2105 50.5806 61.2105C45.322 61.2105 40.5596 59.0781 37.113 55.6315C33.6663 52.1849 31.5339 47.424 31.5339 42.1639C31.5339 36.9053 33.6663 32.1429 37.113 28.6963C40.5596 25.2481 45.322 23.1172 50.5806 23.1172Z" fill="#FFBB5A"/>
<path d="M55.6834 36.2227L61.7708 37.0301C62.2993 37.101 62.7739 37.3105 63.159 37.631C63.5458 37.953 63.8385 38.3813 64.0018 38.8851C64.1667 39.392 64.1821 39.9097 64.0604 40.3935C63.9371 40.8804 63.6767 41.3288 63.29 41.697L58.8388 45.9294L59.9512 51.9691C60.0483 52.4914 59.9944 53.006 59.8095 53.4713C59.623 53.9397 59.3057 54.3511 58.8758 54.6623C58.4459 54.9751 57.9575 55.1492 57.4552 55.1831C56.9576 55.2154 56.4522 55.1076 55.9838 54.8549L50.582 51.929L45.1801 54.8549C44.7133 55.1076 44.2079 55.217 43.7087 55.1831C43.2065 55.1492 42.718 54.9751 42.2882 54.6623C41.8583 54.3496 41.5409 53.9382 41.3545 53.4713C41.1696 53.0076 41.1157 52.493 41.2127 51.9691L42.3251 45.9294L37.8739 41.697C37.4872 41.3288 37.2268 40.8804 37.1036 40.3935C36.9803 39.9097 36.9973 39.392 37.1621 38.8851C37.3254 38.3798 37.6182 37.953 38.0049 37.631C38.3901 37.3105 38.8646 37.101 39.3931 37.0301L45.4806 36.2227L48.1307 30.6822C48.3602 30.2 48.7069 29.8148 49.1291 29.5482C49.5543 29.2802 50.052 29.1338 50.582 29.1338C51.112 29.1338 51.6097 29.2802 52.0349 29.5482C52.4586 29.8148 52.8037 30.2015 53.0333 30.6822L55.6834 36.2227Z" fill="white"/>
<defs>
<linearGradient id="paint0_linear_507_10520" x1="89.4507" y1="0.793093" x2="50.5404" y2="101.207" gradientUnits="userSpaceOnUse">
<stop stop-color="#FFD3D3"/>
<stop offset="1" stop-color="#FFEFEF"/>
</linearGradient>
</defs>
</svg>
