<svg width="8" height="11" viewBox="0 0 8 11" fill="none" xmlns="http://www.w3.org/2000/svg">
<path id="Vector" d="M3.31616 0.5C3.31616 0.223857 3.54002 0 3.81616 0C4.0923 0 4.31616 0.223857 4.31616 0.5H3.31616ZM4.16972 10.8536C3.97445 11.0488 3.65787 11.0488 3.46261 10.8536L0.280628 7.67157C0.085366 7.47631 0.085366 7.15973 0.280628 6.96447C0.47589 6.7692 0.792473 6.7692 0.987735 6.96447L3.81616 9.79289L6.64459 6.96447C6.83985 6.7692 7.15643 6.7692 7.3517 6.96447C7.54696 7.15973 7.54696 7.47631 7.3517 7.67157L4.16972 10.8536ZM4.31616 0.5L4.31616 10.5H3.31616L3.31616 0.5H4.31616Z" fill="#E05E34"/>
</svg>
