<svg width="102" height="102" viewBox="0 0 102 102" fill="none" xmlns="http://www.w3.org/2000/svg">
<rect x="0.666748" y="0.793091" width="100.414" height="100.414" rx="50.2069" fill="url(#paint0_linear_507_10506)"/>
<path d="M71.2701 27.4655H30.477C28.744 27.4655 27.3391 28.8704 27.3391 30.6034V65.1207C27.3391 66.8537 28.744 68.2586 30.477 68.2586H71.2701C73.0032 68.2586 74.4081 66.8537 74.4081 65.1207V30.6034C74.4081 28.8704 73.0032 27.4655 71.2701 27.4655Z" fill="white"/>
<path d="M50.8737 64.3362C44.386 64.3362 39.1064 59.0566 39.1064 52.5689C39.1064 46.0813 44.386 40.8017 50.8737 40.8017C57.3614 40.8017 62.6409 46.0813 62.6409 52.5689C62.6409 59.0566 57.3614 64.3362 50.8737 64.3362ZM50.8737 42.3707C45.2489 42.3707 40.6754 46.9442 40.6754 52.5689C40.6754 58.1937 45.2489 62.7672 50.8737 62.7672C56.4984 62.7672 61.072 58.1937 61.072 52.5689C61.072 46.9442 56.4984 42.3707 50.8737 42.3707Z" fill="#0A0F26"/>
<path d="M60.2874 27.4655V33.7414H27.3391V30.6034C27.3391 28.8697 28.7433 27.4655 30.477 27.4655H60.2874Z" fill="#0FF2B2"/>
<path d="M74.4083 30.6034V33.7414H60.2876V27.4655H71.2704C73.0041 27.4655 74.4083 28.8697 74.4083 30.6034Z" fill="#6B71F2"/>
<path d="M71.7174 68.0076L65.5514 62.7515C64.2884 61.6768 62.3899 61.7552 61.2211 62.9241C60.0522 64.093 59.9737 65.9993 61.0485 67.2545L66.3045 73.4205C66.885 74.0952 67.7244 74.5031 68.6109 74.5423H68.7364C69.5836 74.5423 70.3995 74.205 70.9957 73.6088L71.8979 72.7066C72.5255 72.079 72.8628 71.2083 72.8314 70.3218C72.8 69.4353 72.3921 68.5959 71.7096 68.0154L71.7174 68.0076Z" fill="#0A0F26"/>
<path d="M61.778 64.2578C61.574 64.2578 61.3779 64.1793 61.221 64.0303L58.0831 60.8923C57.9364 60.7457 57.854 60.5467 57.854 60.3393C57.854 60.1318 57.9364 59.9329 58.0831 59.7862C58.2298 59.6395 58.4287 59.5571 58.6361 59.5571C58.8436 59.5571 59.0425 59.6395 59.1892 59.7862L62.3271 62.9241C62.4366 63.0337 62.5111 63.1733 62.541 63.3253C62.571 63.4772 62.5551 63.6346 62.4954 63.7776C62.4357 63.9205 62.3349 64.0424 62.2058 64.1279C62.0767 64.2134 61.925 64.2586 61.7702 64.2578H61.778Z" fill="#0A0F26"/>
<path d="M66.5634 38.4482H61.8565C61.425 38.4482 61.072 38.8013 61.072 39.2327C61.072 39.6642 61.425 40.0172 61.8565 40.0172H64.7434L53.2115 52.2316L49.8617 48.8819C49.7892 48.8091 49.7029 48.7514 49.608 48.7121C49.5131 48.6727 49.4114 48.6524 49.3087 48.6524C49.2059 48.6524 49.1042 48.6727 49.0093 48.7121C48.9144 48.7514 48.8282 48.8091 48.7556 48.8819L44.0487 53.5888C43.9392 53.6983 43.8648 53.8379 43.8348 53.9899C43.8049 54.1418 43.8207 54.2993 43.8804 54.4422C43.9401 54.5851 44.0409 54.707 44.1701 54.7925C44.2992 54.878 44.4508 54.9232 44.6057 54.9224C44.8097 54.9224 45.0058 54.8439 45.1627 54.6949L49.3126 50.545L52.678 53.9104C52.8271 54.0594 53.0389 54.1301 53.2429 54.1379C53.4547 54.1379 53.6586 54.0438 53.7998 53.8947L65.7789 41.2096V43.9475C65.7789 44.3789 66.1319 44.7319 66.5634 44.7319C66.9948 44.7319 67.3478 44.3789 67.3478 43.9475V39.2406C67.3478 38.8091 66.9948 38.4561 66.5634 38.4561V38.4482Z" fill="#6B71F2"/>
<defs>
<linearGradient id="paint0_linear_507_10506" x1="89.784" y1="0.793093" x2="50.8736" y2="101.207" gradientUnits="userSpaceOnUse">
<stop stop-color="#FFD3D3"/>
<stop offset="1" stop-color="#FFEFEF"/>
</linearGradient>
</defs>
</svg>
