<svg width="23" height="23" viewBox="0 0 23 23" fill="none" xmlns="http://www.w3.org/2000/svg">
<rect x="0.413818" y="0.5" width="22" height="22" rx="8" fill="#FFB454"/>
<path fill-rule="evenodd" clip-rule="evenodd" d="M11.4139 6.5874C11.8423 6.5874 12.1896 6.93468 12.1896 7.36308V11.5C12.1896 11.9284 11.8423 12.2757 11.4139 12.2757C10.9855 12.2757 10.6382 11.9284 10.6382 11.5V7.36308C10.6382 6.93468 10.9855 6.5874 11.4139 6.5874Z" fill="#1C274C"/>
<path d="M12.4481 15.3784C12.4481 15.9496 11.9851 16.4126 11.4139 16.4126C10.8427 16.4126 10.3796 15.9496 10.3796 15.3784C10.3796 14.8072 10.8427 14.3442 11.4139 14.3442C11.9851 14.3442 12.4481 14.8072 12.4481 15.3784Z" fill="#1C274C"/>
</svg>
