<svg width="28" height="28" viewBox="0 0 28 28" fill="none" xmlns="http://www.w3.org/2000/svg">
<g id="Frame" clip-path="url(#clip0_752_1148)">
<g id="Group">
<path id="Vector" d="M25.375 0.875H2.625C1.6585 0.875 0.875 1.6585 0.875 2.625V21.875C0.875 22.8415 1.6585 23.625 2.625 23.625H25.375C26.3415 23.625 27.125 22.8415 27.125 21.875V2.625C27.125 1.6585 26.3415 0.875 25.375 0.875Z" fill="white"/>
<path id="Vector_2" d="M14 21.4375C10.3819 21.4375 7.4375 18.4931 7.4375 14.875C7.4375 11.2569 10.3819 8.3125 14 8.3125C17.6181 8.3125 20.5625 11.2569 20.5625 14.875C20.5625 18.4931 17.6181 21.4375 14 21.4375ZM14 9.1875C10.8631 9.1875 8.3125 11.7381 8.3125 14.875C8.3125 18.0119 10.8631 20.5625 14 20.5625C17.1369 20.5625 19.6875 18.0119 19.6875 14.875C19.6875 11.7381 17.1369 9.1875 14 9.1875Z" fill="#A0A0A0"/>
<path id="Vector_3" d="M19.25 0.875V4.375H0.875V2.625C0.875 1.65813 1.65813 0.875 2.625 0.875H19.25Z" fill="#0FF2B2"/>
<path id="Vector_4" d="M27.125 2.625V4.375H19.25V0.875H25.375C26.3419 0.875 27.125 1.65813 27.125 2.625Z" fill="#6B71F2"/>
<path id="Vector_5" d="M25.624 23.485L22.1853 20.5538C21.4809 19.9544 20.4222 19.9982 19.7703 20.65C19.1184 21.3019 19.0747 22.365 19.674 23.065L22.6053 26.5038C22.929 26.88 23.3972 27.1075 23.8915 27.1294H23.9615C24.434 27.1294 24.889 26.9413 25.2215 26.6088L25.7247 26.1057C26.0747 25.7557 26.2628 25.27 26.2453 24.7757C26.2278 24.2813 26.0003 23.8132 25.6197 23.4894L25.624 23.485Z" fill="#A0A0A0"/>
<path id="Vector_6" d="M20.081 21.3938C19.9672 21.3938 19.8578 21.3501 19.7703 21.267L18.0203 19.517C17.9385 19.4352 17.8926 19.3242 17.8926 19.2085C17.8926 19.0928 17.9385 18.9819 18.0203 18.9001C18.1021 18.8183 18.2131 18.7723 18.3288 18.7723C18.4445 18.7723 18.5554 18.8183 18.6372 18.9001L20.3872 20.6501C20.4483 20.7112 20.4898 20.7891 20.5065 20.8738C20.5232 20.9585 20.5144 21.0463 20.4811 21.126C20.4478 21.2057 20.3916 21.2737 20.3195 21.3214C20.2475 21.3691 20.163 21.3943 20.0766 21.3938H20.081Z" fill="#A0A0A0"/>
<path id="Vector_7" d="M22.7497 7H20.1247C19.8841 7 19.6872 7.19687 19.6872 7.4375C19.6872 7.67813 19.8841 7.875 20.1247 7.875H21.7347L15.3034 14.6869L13.4353 12.8187C13.3948 12.7782 13.3468 12.746 13.2938 12.7241C13.2409 12.7021 13.1842 12.6908 13.1269 12.6908C13.0696 12.6908 13.0128 12.7021 12.9599 12.7241C12.907 12.746 12.8589 12.7782 12.8184 12.8187L10.1934 15.4437C10.1324 15.5048 10.0909 15.5827 10.0742 15.6675C10.0574 15.7522 10.0663 15.84 10.0996 15.9197C10.1329 15.9994 10.1891 16.0674 10.2611 16.1151C10.3331 16.1628 10.4177 16.188 10.5041 16.1875C10.6178 16.1875 10.7272 16.1437 10.8147 16.0606L13.1291 13.7463L15.0059 15.6231C15.0891 15.7062 15.2072 15.7456 15.3209 15.75C15.4391 15.75 15.5528 15.6975 15.6316 15.6144L22.3122 8.54V10.0669C22.3122 10.3075 22.5091 10.5044 22.7497 10.5044C22.9903 10.5044 23.1872 10.3075 23.1872 10.0669V7.44188C23.1872 7.20125 22.9903 7.00438 22.7497 7.00438V7Z" fill="#6B71F2"/>
</g>
</g>
<defs>
<clipPath id="clip0_752_1148">
<rect width="28" height="28" fill="white"/>
</clipPath>
</defs>
</svg>
