<svg width="9" height="10" viewBox="0 0 9 10" fill="none" xmlns="http://www.w3.org/2000/svg">
<path d="M0.64201 1.99478C0.349117 1.70189 0.349117 1.22702 0.64201 0.934125C0.934904 0.641231 1.40978 0.641231 1.70267 0.934125L0.64201 1.99478ZM8.99341 8.53552C8.99341 8.94974 8.65762 9.28552 8.24341 9.28552L1.49341 9.28552C1.07919 9.28552 0.743408 8.94974 0.743408 8.53552C0.743408 8.12131 1.07919 7.78552 1.49341 7.78552L7.49341 7.78552L7.49341 1.78552C7.49341 1.37131 7.82919 1.03552 8.24341 1.03552C8.65762 1.03552 8.99341 1.37131 8.99341 1.78552L8.99341 8.53552ZM1.70267 0.934125L8.77374 8.00519L7.71308 9.06585L0.64201 1.99478L1.70267 0.934125Z" fill="#E05E34"/>
</svg>
